<svg width="17" height="16" viewBox="0 0 17 16" fill="none" xmlns="http://www.w3.org/2000/svg">
<g id="calendar_month">
<path id="Vector" d="M13.1667 2.66671H12.5V1.33337H11.1667V2.66671H5.83333V1.33337H4.5V2.66671H3.83333C3.09333 2.66671 2.50667 3.26671 2.50667 4.00004L2.5 13.3334C2.5 14.0667 3.09333 14.6667 3.83333 14.6667H13.1667C13.9 14.6667 14.5 14.0667 14.5 13.3334V4.00004C14.5 3.26671 13.9 2.66671 13.1667 2.66671ZM13.1667 13.3334H3.83333V6.66671H13.1667V13.3334ZM13.1667 5.33337H3.83333V4.00004H13.1667V5.33337ZM6.5 9.33337H5.16667V8.00004H6.5V9.33337ZM9.16667 9.33337H7.83333V8.00004H9.16667V9.33337ZM11.8333 9.33337H10.5V8.00004H11.8333V9.33337ZM6.5 12H5.16667V10.6667H6.5V12ZM9.16667 12H7.83333V10.6667H9.16667V12ZM11.8333 12H10.5V10.6667H11.8333V12Z" fill="#808080"/>
</g>
</svg>
