<svg width="16" height="16" viewBox="0 0 16 16" fill="none" xmlns="http://www.w3.org/2000/svg">
<g id="Bold / Time / Calendar">
<g id="Subtract">
<path d="M5.16634 1.66699C5.16634 1.39085 4.94248 1.16699 4.66634 1.16699C4.3902 1.16699 4.16634 1.39085 4.16634 1.66699V2.71983C3.20679 2.79667 2.57686 2.98524 2.11406 3.44804C1.65126 3.91084 1.46268 4.54077 1.38585 5.50033H14.6135C14.5367 4.54077 14.3481 3.91084 13.8853 3.44804C13.4225 2.98524 12.7926 2.79667 11.833 2.71983V1.66699C11.833 1.39085 11.6091 1.16699 11.333 1.16699C11.0569 1.16699 10.833 1.39085 10.833 1.66699V2.67559C10.3895 2.66699 9.89236 2.66699 9.33301 2.66699H6.66634C6.10699 2.66699 5.60985 2.66699 5.16634 2.67559V1.66699Z" fill="#535353"/>
<path fill-rule="evenodd" clip-rule="evenodd" d="M1.33301 8.00033C1.33301 7.44097 1.33301 6.94384 1.34161 6.50033H14.6577C14.6663 6.94384 14.6663 7.44097 14.6663 8.00033V9.33366C14.6663 11.8478 14.6663 13.1049 13.8853 13.8859C13.1042 14.667 11.8472 14.667 9.33301 14.667H6.66634C4.15218 14.667 2.89511 14.667 2.11406 13.8859C1.33301 13.1049 1.33301 11.8478 1.33301 9.33366V8.00033ZM11.333 9.33366C11.7012 9.33366 11.9997 9.03518 11.9997 8.66699C11.9997 8.2988 11.7012 8.00033 11.333 8.00033C10.9648 8.00033 10.6663 8.2988 10.6663 8.66699C10.6663 9.03518 10.9648 9.33366 11.333 9.33366ZM11.333 12.0003C11.7012 12.0003 11.9997 11.7018 11.9997 11.3337C11.9997 10.9655 11.7012 10.667 11.333 10.667C10.9648 10.667 10.6663 10.9655 10.6663 11.3337C10.6663 11.7018 10.9648 12.0003 11.333 12.0003ZM8.66634 8.66699C8.66634 9.03518 8.36786 9.33366 7.99967 9.33366C7.63148 9.33366 7.33301 9.03518 7.33301 8.66699C7.33301 8.2988 7.63148 8.00033 7.99967 8.00033C8.36786 8.00033 8.66634 8.2988 8.66634 8.66699ZM8.66634 11.3337C8.66634 11.7018 8.36786 12.0003 7.99967 12.0003C7.63148 12.0003 7.33301 11.7018 7.33301 11.3337C7.33301 10.9655 7.63148 10.667 7.99967 10.667C8.36786 10.667 8.66634 10.9655 8.66634 11.3337ZM4.66634 9.33366C5.03453 9.33366 5.33301 9.03518 5.33301 8.66699C5.33301 8.2988 5.03453 8.00033 4.66634 8.00033C4.29815 8.00033 3.99967 8.2988 3.99967 8.66699C3.99967 9.03518 4.29815 9.33366 4.66634 9.33366ZM4.66634 12.0003C5.03453 12.0003 5.33301 11.7018 5.33301 11.3337C5.33301 10.9655 5.03453 10.667 4.66634 10.667C4.29815 10.667 3.99967 10.9655 3.99967 11.3337C3.99967 11.7018 4.29815 12.0003 4.66634 12.0003Z" fill="#535353"/>
</g>
</g>
</svg>
