<svg width="16" height="16" viewBox="0 0 16 16" fill="none" xmlns="http://www.w3.org/2000/svg">
<g id="Bold / Settings, Fine Tuning / Widget 5">
<path id="Rectangle 1880" d="M1.33301 4.14003C1.33301 2.81678 1.33301 2.15516 1.77235 1.74409C2.21169 1.33301 2.91879 1.33301 4.33301 1.33301C5.74722 1.33301 6.45433 1.33301 6.89367 1.74409C7.33301 2.15516 7.33301 2.81678 7.33301 4.14003V11.8593C7.33301 13.1826 7.33301 13.8442 6.89367 14.2553C6.45433 14.6663 5.74722 14.6663 4.33301 14.6663C2.91879 14.6663 2.21169 14.6663 1.77235 14.2553C1.33301 13.8442 1.33301 13.1826 1.33301 11.8593V4.14003Z" fill="#535353"/>
<path id="Rectangle 1884" d="M8.66699 10.2663C8.66699 8.88355 8.66699 8.19216 9.10633 7.76258C9.54567 7.33301 10.2528 7.33301 11.667 7.33301C13.0812 7.33301 13.7883 7.33301 14.2277 7.76258C14.667 8.19216 14.667 8.88355 14.667 10.2663V11.733C14.667 13.1158 14.667 13.8072 14.2277 14.2368C13.7883 14.6663 13.0812 14.6663 11.667 14.6663C10.2528 14.6663 9.54567 14.6663 9.10633 14.2368C8.66699 13.8072 8.66699 13.1158 8.66699 11.733V10.2663Z" fill="#535353"/>
<path id="Rectangle 1881" d="M8.66699 3.66634C8.66699 2.94154 8.66699 2.57914 8.78117 2.29328C8.93341 1.91212 9.22542 1.6093 9.59297 1.45142C9.86862 1.33301 10.2181 1.33301 10.917 1.33301H12.417C13.1159 1.33301 13.4654 1.33301 13.741 1.45142C14.1086 1.6093 14.4006 1.91212 14.5528 2.29328C14.667 2.57914 14.667 2.94154 14.667 3.66634C14.667 4.39114 14.667 4.75354 14.5528 5.0394C14.4006 5.42056 14.1086 5.72339 13.741 5.88126C13.4654 5.99967 13.1159 5.99967 12.417 5.99967H10.917C10.2181 5.99967 9.86862 5.99967 9.59297 5.88126C9.22542 5.72339 8.93341 5.42056 8.78117 5.0394C8.66699 4.75354 8.66699 4.39114 8.66699 3.66634Z" fill="#535353"/>
</g>
</svg>
