<svg width="16" height="16" viewBox="0 0 16 16" fill="none" xmlns="http://www.w3.org/2000/svg">
<g id="solar:home-2-bold">
<path id="Vector" fill-rule="evenodd" clip-rule="evenodd" d="M2.312 5.4938C2 6.062 2 6.749 2 8.1218V9.035C2 11.375 2 12.5456 2.7032 13.2728C3.4058 14 4.5374 14 6.8 14H9.2C11.4626 14 12.5942 14 13.2968 13.2728C14 12.5456 14 11.3756 14 9.035V8.1224C14 6.749 14 6.0626 13.688 5.4938C13.3772 4.9244 12.8078 4.5716 11.6696 3.8648L10.4696 3.1202C9.2666 2.3732 8.6648 2 8 2C7.3352 2 6.734 2.3732 5.5304 3.1202L4.3304 3.8648C3.1922 4.5716 2.6234 4.9244 2.312 5.4938ZM7.55 11.6C7.55 11.7193 7.59741 11.8338 7.6818 11.9182C7.76619 12.0026 7.88065 12.05 8 12.05C8.11935 12.05 8.23381 12.0026 8.3182 11.9182C8.40259 11.8338 8.45 11.7193 8.45 11.6V9.8C8.45 9.68065 8.40259 9.56619 8.3182 9.4818C8.23381 9.39741 8.11935 9.35 8 9.35C7.88065 9.35 7.76619 9.39741 7.6818 9.4818C7.59741 9.56619 7.55 9.68065 7.55 9.8V11.6Z" fill="#535353"/>
</g>
</svg>
