<svg width="16" height="16" viewBox="0 0 16 16" fill="none" xmlns="http://www.w3.org/2000/svg">
<g id="Bold / Arrows Action / Logout 2">
<g id="Vector">
<path fill-rule="evenodd" clip-rule="evenodd" d="M10.7497 8.00033C10.7497 7.72418 10.5258 7.50033 10.2497 7.50033L2.93464 7.50033L4.24174 6.37995C4.4514 6.20024 4.47568 5.88459 4.29597 5.67493C4.11626 5.46527 3.80061 5.44099 3.59095 5.6207L1.25761 7.6207C1.14679 7.71569 1.08301 7.85436 1.08301 8.00033C1.08301 8.14629 1.14679 8.28496 1.25761 8.37995L3.59095 10.38C3.80061 10.5597 4.11626 10.5354 4.29597 10.3257C4.47568 10.1161 4.4514 9.80041 4.24174 9.6207L2.93464 8.50033L10.2497 8.50033C10.5258 8.50033 10.7497 8.27647 10.7497 8.00033Z" fill="#535353"/>
<path d="M6.24967 5.33366C6.24967 5.80179 6.24967 6.03585 6.36202 6.20399C6.41066 6.2768 6.47317 6.33931 6.54598 6.38796C6.71412 6.5003 6.94819 6.5003 7.41631 6.5003L10.2497 6.5003C11.0781 6.5003 11.7497 7.17187 11.7497 8.0003C11.7497 8.82873 11.0781 9.5003 10.2497 9.5003L7.41637 9.5003C6.94819 9.5003 6.7141 9.5003 6.54594 9.61266C6.47316 9.6613 6.41067 9.72379 6.36204 9.79657C6.24967 9.96472 6.24967 10.1988 6.24967 10.667C6.24967 12.5526 6.24967 13.4954 6.83546 14.0812C7.42125 14.667 8.36391 14.667 10.2495 14.667L10.9162 14.667C12.8018 14.667 13.7446 14.667 14.3304 14.0812C14.9162 13.4954 14.9162 12.5526 14.9162 10.667L14.9162 5.33366C14.9162 3.44805 14.9162 2.50523 14.3304 1.91945C13.7446 1.33366 12.8018 1.33366 10.9162 1.33366L10.2495 1.33366C8.36391 1.33366 7.42124 1.33366 6.83546 1.91945C6.24967 2.50523 6.24967 3.44804 6.24967 5.33366Z" fill="#535353"/>
</g>
</g>
</svg>
