<svg width="16" height="16" viewBox="0 0 16 16" fill="none" xmlns="http://www.w3.org/2000/svg">
<g id="directions_run">
<path id="Vector" d="M9.70046 3.49967C10.4338 3.49967 11.0338 2.89967 11.0338 2.16634C11.0338 1.43301 10.4338 0.833008 9.70046 0.833008C8.96712 0.833008 8.36712 1.43301 8.36712 2.16634C8.36712 2.89967 8.96712 3.49967 9.70046 3.49967ZM7.30046 12.7663L7.96712 9.83301L9.36712 11.1663V15.1663H10.7005V10.1663L9.30046 8.83301L9.70046 6.83301C10.5671 7.83301 11.9005 8.49967 13.3671 8.49967V7.16634C12.1005 7.16634 11.0338 6.49967 10.5005 5.56634L9.83379 4.49967C9.56712 4.09967 9.16712 3.83301 8.70046 3.83301C8.50046 3.83301 8.36712 3.89967 8.16712 3.89967L4.70046 5.36634V8.49967H6.03379V6.23301L7.23379 5.76634L6.16712 11.1663L2.90046 10.4997L2.63379 11.833L7.30046 12.7663Z" fill="#535353"/>
</g>
</svg>
