<svg width="16" height="16" viewBox="0 0 16 16" fill="none" xmlns="http://www.w3.org/2000/svg">
<g id="settings">
<path id="Vector" d="M12.7597 8.62628C12.7864 8.42628 12.7997 8.21961 12.7997 7.99961C12.7997 7.78628 12.7864 7.57294 12.7531 7.37294L14.1064 6.31961C14.2264 6.22628 14.2597 6.04628 14.1864 5.91294L12.9064 3.69961C12.8264 3.55294 12.6597 3.50628 12.5131 3.55294L10.9197 4.19294C10.5864 3.93961 10.2331 3.72628 9.83975 3.56628L9.59975 1.87294C9.57308 1.71294 9.43975 1.59961 9.27975 1.59961H6.71975C6.55975 1.59961 6.43308 1.71294 6.40641 1.87294L6.16641 3.56628C5.77308 3.72628 5.41308 3.94628 5.08641 4.19294L3.49308 3.55294C3.34641 3.49961 3.17975 3.55294 3.09975 3.69961L1.82641 5.91294C1.74641 6.05294 1.77308 6.22628 1.90641 6.31961L3.25975 7.37294C3.22641 7.57294 3.19975 7.79294 3.19975 7.99961C3.19975 8.20628 3.21308 8.42628 3.24641 8.62628L1.89308 9.67961C1.77308 9.77294 1.73975 9.95294 1.81308 10.0863L3.09308 12.2996C3.17308 12.4463 3.33975 12.4929 3.48641 12.4463L5.07975 11.8063C5.41308 12.0596 5.76641 12.2729 6.15975 12.4329L6.39975 14.1263C6.43308 14.2863 6.55975 14.3996 6.71975 14.3996H9.27975C9.43975 14.3996 9.57308 14.2863 9.59308 14.1263L9.83308 12.4329C10.2264 12.2729 10.5864 12.0596 10.9131 11.8063L12.5064 12.4463C12.6531 12.4996 12.8197 12.4463 12.8997 12.2996L14.1797 10.0863C14.2597 9.93961 14.2264 9.77294 14.0997 9.67961L12.7597 8.62628ZM7.99975 10.3996C6.67975 10.3996 5.59975 9.31961 5.59975 7.99961C5.59975 6.67961 6.67975 5.59961 7.99975 5.59961C9.31975 5.59961 10.3997 6.67961 10.3997 7.99961C10.3997 9.31961 9.31975 10.3996 7.99975 10.3996Z" fill="#535353"/>
</g>
</svg>
