<svg width="16" height="16" viewBox="0 0 16 16" fill="none" xmlns="http://www.w3.org/2000/svg">
<g id="web_stories">
<path id="Vector" d="M11.167 2.66634C11.9003 2.66634 12.5003 3.26634 12.5003 3.99967V11.9997C12.5003 12.733 11.9003 13.333 11.167 13.333V2.66634ZM1.16699 13.333C1.16699 14.0663 1.76699 14.6663 2.50033 14.6663H8.50033C9.23366 14.6663 9.83366 14.0663 9.83366 13.333V2.66634C9.83366 1.93301 9.23366 1.33301 8.50033 1.33301H2.50033C1.76699 1.33301 1.16699 1.93301 1.16699 2.66634V13.333ZM13.8337 11.9997C14.387 11.9997 14.8337 11.553 14.8337 10.9997V4.99967C14.8337 4.44634 14.387 3.99967 13.8337 3.99967V11.9997Z" fill="#535353"/>
</g>
</svg>
